<svg height="512pt" viewBox="-12 0 512 512.003" width="512pt" xmlns="http://www.w3.org/2000/svg"><path d="m128.441406 408.910156c48.070313 0 115.515625-34.230468 115.515625-34.230468s-67.445312-34.230469-115.515625-34.230469c-48.070312 0-120.9375 34.230469-120.9375 34.230469s72.867188 34.230468 120.9375 34.230468zm0 0" fill="#8bf1a9"/><path d="m372.664062 302.183594c-41.527343 42.472656-128.707031 72.5-128.707031 72.5s29.355469-89.167969 70.882813-131.644532c41.53125-42.472656 133.394531-77.289062 133.394531-77.289062s-34.039063 93.957031-75.570313 136.433594zm0 0" fill="#6ae49c"/><path d="m412.226562 181.191406c-11.542968 28.460938-38.449218 89.171875-69.5625 120.992188-24.441406 25-64.695312 45.683594-93.6875 58.472656-3.257812 8.683594-5.019531 14.023438-5.019531 14.023438s87.179688-30.023438 128.707031-72.496094c41.53125-42.476563 75.570313-136.4375 75.570313-136.4375s-15.191406 5.757812-36.007813 15.445312zm0 0" fill="#37db7a"/><path d="m294.769531 195.300781c0 74.648438-50.8125 179.382813-50.8125 179.382813s-50.808593-104.734375-50.808593-179.382813c0-74.644531 50.808593-187.800781 50.808593-187.800781s50.8125 113.15625 50.8125 187.800781zm0 0" fill="#6ae49c"/><path d="m243.957031 7.5s-6.578125 14.648438-15 36.882812c14.988281 39.558594 35.8125 103.128907 35.8125 150.917969 0 47.789063-20.824219 107.910157-35.8125 144.984375 8.421875 20.835938 15 34.398438 15 34.398438s50.8125-104.734375 50.8125-179.382813c0-74.644531-50.8125-187.800781-50.8125-187.800781zm0 0" fill="#37db7a"/><path d="m359.472656 408.910156c-48.070312 0-115.515625-34.230468-115.515625-34.230468s67.445313-34.230469 115.515625-34.230469c48.070313 0 120.941406 34.230469 120.941406 34.230469s-72.871093 34.230468-120.941406 34.230468zm0 0" fill="#6ae49c"/><path d="m359.472656 340.453125c-9.859375 0-20.53125 1.441406-31.273437 3.730469 33.6875 6.148437 70.46875 21.089844 86.273437 27.949218 3.109375 1.347657 3.101563 5.753907-.007812 7.101563-15.019532 6.519531-48.964844 20.328125-81.203125 26.960937 9.019531 1.691407 17.90625 2.714844 26.210937 2.714844 48.070313 0 120.941406-34.226562 120.941406-34.226562s-72.871093-34.230469-120.941406-34.230469zm0 0" fill="#37db7a"/><path d="m288 456.476562c-25.804688-26.390624-44.042969-81.792968-44.042969-81.792968s54.167969 18.652344 79.972657 45.042968c25.800781 26.394532 46.953124 84.773438 46.953124 84.773438s-57.078124-21.632812-82.882812-48.023438zm0 0" fill="#6ae49c"/><path d="m293.929688 419.726562c17.0625 17.453126 32.085937 48.886719 40.3125 68.183594 19.636718 10.144532 36.640624 16.589844 36.640624 16.589844s-21.148437-58.382812-46.953124-84.773438c-25.804688-26.390624-79.972657-45.042968-79.972657-45.042968s2.011719 6.101562 5.636719 15.21875c15.523438 7.734375 32.777344 18.003906 44.335938 29.824218zm0 0" fill="#37db7a"/><path d="m115.25 302.183594c41.527344 42.472656 128.707031 72.5 128.707031 72.5s-29.355469-89.167969-70.882812-131.644532c-41.527344-42.472656-133.394531-77.289062-133.394531-77.289062s34.042968 93.957031 75.570312 136.433594zm0 0" fill="#6ae49c"/><path d="m199.914062 456.476562c25.804688-26.390624 44.042969-81.792968 44.042969-81.792968s-54.167969 18.652344-79.96875 45.042968c-25.804687 26.394532-46.957031 84.773438-46.957031 84.773438s57.082031-21.632812 82.882812-48.023438zm0 0" fill="#6ae49c"/><path d="m483.601562 367.894531c-3.039062-1.429687-74.949218-34.941406-124.128906-34.941406-4.605468 0-9.363281.292969-14.207031.824219 13.15625-8.703125 24.117187-17.507813 32.761719-26.351563 17.804687-18.207031 36.230468-47.199219 54.769531-86.167969 13.699219-28.792968 22.136719-51.980468 22.488281-52.953124 1-2.757813.300782-5.839844-1.785156-7.898438s-5.183594-2.710938-7.921875-1.671875c-.953125.363281-23.640625 9-51.808594 23.015625-38.121093 18.972656-66.480469 37.828125-84.292969 56.046875-5.054687 5.171875-10.109374 11.179687-15.144531 17.980469 5.269531-22.660156 7.9375-42.890625 7.9375-60.476563 0-75.386719-49.367187-186.191406-51.46875-190.875-1.210937-2.691406-3.890625-4.425781-6.84375-4.425781s-5.632812 1.734375-6.839843 4.429688c-.28125.617187-27.957032 62.59375-42.492188 124.667968-.945312 4.03125 1.558594 8.066406 5.59375 9.011719 4.03125.941406 8.066406-1.558594 9.011719-5.59375 9.78125-41.769531 25.6875-83.578125 34.722656-105.742187 13.726563 33.691406 43.3125 112.789062 43.3125 168.53125 0 55.714843-29.644531 129.976562-43.3125 161.246093-13.664063-31.253906-43.308594-105.488281-43.308594-161.246093 0-9.585938.890625-20.4375 2.648438-32.242188.609375-4.097656-2.214844-7.914062-6.3125-8.523438-4.105469-.609374-7.914063 2.21875-8.523438 6.316407-1.867187 12.535156-2.8125 24.125-2.8125 34.449219 0 19.078124 3.160157 39.898437 7.914063 60.4375-5.027344-6.785157-10.074219-12.777344-15.125-17.941407-17.808594-18.21875-46.167969-37.074219-84.289063-56.046875-28.167969-14.019531-50.855469-22.652344-51.808593-23.015625-2.738282-1.039062-5.835938-.382812-7.921876 1.671875-2.085937 2.058594-2.785156 5.140625-1.789062 7.898438.351562.972656 8.792969 24.160156 22.492188 52.953125 18.539062 38.96875 36.964843 67.960937 54.765624 86.167969 8.644532 8.839843 19.601563 17.644531 32.757813 26.351562-4.839844-.53125-9.597656-.824219-14.199219-.824219-13.105468 0-29.015625 2.398438-47.300781 7.132813-4.007813 1.039062-6.417969 5.128906-5.378906 9.140625 1.039062 4.007812 5.128906 6.421875 9.140625 5.378906 17.054687-4.414063 31.703125-6.652344 43.539062-6.652344 32.730469 0 75.765625 16.976563 97.789063 26.730469-22.011719 9.753906-65.023438 26.726562-97.789063 26.726562-32.738281 0-78.441406-16.9375-102.132812-26.734374 7.863281-3.253907 18.144531-7.296876 29.539062-11.226563 3.914063-1.347656 5.996094-5.617187 4.644532-9.53125-1.347657-3.917969-5.617188-5.996094-9.535157-4.648437-26.007812 8.96875-45.8125 18.234374-46.644531 18.625-2.632812 1.234374-4.3125 3.878906-4.3125 6.789062 0 2.90625 1.679688 5.550781 4.3125 6.785156 3.039062 1.429688 74.949219 34.941406 124.128906 34.941406 10.152344 0 21.046875-1.425781 31.96875-3.703124-.613281.59375-1.207031 1.183593-1.789062 1.777343-26.632813 27.238281-47.753906 85.015625-48.640625 87.460938-1 2.753906-.300781 5.839843 1.785156 7.894531 1.429687 1.410156 3.328125 2.160156 5.265625 2.160156.894531 0 1.792969-.160156 2.660156-.488281 2.390625-.90625 58.929688-22.53125 85.585938-49.792969 17.171875-17.566406 30.875-46.582031 38.679687-65.6875 7.800781 19.105469 21.507813 48.121094 38.679688 65.6875 26.652343 27.261719 83.191406 48.886719 85.585937 49.792969.867188.328125 1.765625.488281 2.65625.488281 1.9375 0 3.839844-.75 5.269532-2.160156 2.085937-2.054688 2.785156-5.140625 1.785156-7.894531-.886719-2.445313-22.011719-60.222657-48.640625-87.460938-.582031-.59375-1.179688-1.183593-1.792969-1.777343 10.925781 2.273437 21.820312 3.703124 31.972656 3.703124 49.179688 0 121.089844-33.515624 124.128906-34.941406 2.628907-1.234375 4.308594-3.878906 4.308594-6.789062 0-2.90625-1.675781-5.554688-4.308594-6.789063zm-163.398437-119.613281c29.613281-30.285156 86.8125-57.046875 114.667969-68.957031-11.597656 28.410156-37.847656 87.21875-67.570313 117.617187-16.175781 16.542969-42.675781 33.871094-76.636719 50.097656-.011718.007813-23.007812 8.632813-31.554687 12.347657 4.757813-11.007813 11-26.222657 17.292969-43.8125.121094-.195313.234375-.398438.335937-.609375 14.390625-29.46875 29.015625-51.902344 43.464844-66.683594zm-123.199219 98.683594c-.195312-.121094-60.355468-33.625-76.390625-50.023438-29.722656-30.398437-55.972656-89.207031-67.570312-117.617187 27.859375 11.910156 85.058593 38.671875 114.667969 68.957031 14.527343 14.859375 29.21875 37.445312 43.671874 67.117188 6.289063 17.585937 12.578126 32.886718 17.386719 43.972656-8.605469-3.742188-19.613281-8.214844-31.765625-12.40625zm-2.453125 104.269531c-16.019531 16.386719-45.472656 31.160156-63.875 39.394531 8.035157-18.8125 22.542969-49.15625 38.671875-65.65625 8.410156-8.605468 21.113282-17.363281 37.75-26.03125.265625-.140625 17.097656-6.933594 23.394532-9.703125-7.285157 17.976563-20.269532 45.96875-35.941407 61.996094zm124.015625-26.261719c16.113282 16.480469 30.632813 46.839844 38.667969 65.660156-18.394531-8.230468-47.828125-22.992187-63.871094-39.398437-15.667969-16.027344-28.65625-44.019531-35.9375-61.992187 6.175781 2.714843 13.734375 5.871093 22.152344 9.058593 17.242187 8.875 30.359375 17.847657 38.988281 26.671875zm40.90625-23.5625c-32.730468 0-75.765625-16.976562-97.789062-26.730468 22.011718-9.753907 65.023437-26.730469 97.789062-26.730469 32.734375 0 78.429688 16.9375 102.121094 26.734375-23.683594 9.796875-69.359375 26.726562-102.121094 26.726562zm0 0" fill="#18191b"/></svg>